<mxfile host="drawio-plugin" modified="2022-10-07T17:15:43.597Z" agent="5.0 (Windows NT 6.2; Win64; x64) AppleWebKit/537.36 (KHTML, like Gecko) Chrome/89.0.4389.114 Safari/537.36" etag="hkLG9ucClcS6abRtgOZm" version="15.5.4" type="embed"><diagram id="jM5Tjway_4YP4iiUsRrD" name="Página-1"><mxGraphModel dx="1068" dy="1273" grid="1" gridSize="10" guides="1" tooltips="1" connect="1" arrows="1" fold="1" page="1" pageScale="1" pageWidth="760" pageHeight="660" math="0" shadow="0"><root><mxCell id="0"/><mxCell id="1" parent="0"/><mxCell id="7" style="edgeStyle=orthogonalEdgeStyle;rounded=0;orthogonalLoop=1;jettySize=auto;html=1;exitX=1;exitY=0.5;exitDx=0;exitDy=0;entryX=0;entryY=0.5;entryDx=0;entryDy=0;" parent="1" source="ItNgEbb21SRkXacaxXQp-1" target="6" edge="1"><mxGeometry relative="1" as="geometry"/></mxCell><mxCell id="ItNgEbb21SRkXacaxXQp-1" value="&lt;b&gt;COMPILER:&lt;br&gt;&lt;/b&gt;{&lt;span style=&quot;font-family: &amp;#34;jetbrains mono&amp;#34; , monospace ; color: rgb(255 , 255 , 255)&quot;&gt;tput&lt;/span&gt;&lt;span style=&quot;color: rgb(235 , 235 , 235) ; font-family: &amp;#34;jetbrains mono&amp;#34; , monospace&quot;&gt;: &lt;/span&gt;&lt;span style=&quot;font-family: &amp;#34;jetbrains mono&amp;#34; , monospace ; color: rgb(136 , 136 , 198)&quot;&gt;int&lt;/span&gt;&lt;span style=&quot;font-family: &amp;#34;jetbrains mono&amp;#34; , monospace ; color: rgb(237 , 134 , 74) ; font-weight: bold&quot;&gt;, &lt;br&gt;&lt;/span&gt;&lt;span style=&quot;font-family: &amp;#34;jetbrains mono&amp;#34; , monospace ; color: rgb(255 , 255 , 255)&quot;&gt;layers&lt;/span&gt;&lt;span style=&quot;color: rgb(235 , 235 , 235) ; font-family: &amp;#34;jetbrains mono&amp;#34; , monospace&quot;&gt;: &lt;/span&gt;&lt;span style=&quot;font-family: &amp;#34;jetbrains mono&amp;#34; , monospace ; color: rgb(136 , 136 , 198)&quot;&gt;list&lt;/span&gt;&lt;span style=&quot;font-family: &amp;#34;jetbrains mono&amp;#34; , monospace ; color: rgb(237 , 134 , 74) ; font-weight: bold&quot;&gt;, &lt;br&gt;&lt;/span&gt;&lt;span style=&quot;font-family: &amp;#34;jetbrains mono&amp;#34; , monospace ; color: rgb(255 , 255 , 255)&quot;&gt;shapes&lt;/span&gt;&lt;span style=&quot;color: rgb(235 , 235 , 235) ; font-family: &amp;#34;jetbrains mono&amp;#34; , monospace&quot;&gt;: &lt;/span&gt;&lt;span style=&quot;font-family: &amp;#34;jetbrains mono&amp;#34; , monospace ; color: rgb(136 , 136 , 198)&quot;&gt;list&lt;/span&gt;&lt;span style=&quot;color: rgb(235 , 235 , 235) ; font-family: &amp;#34;jetbrains mono&amp;#34; , monospace&quot;&gt;[&lt;/span&gt;&lt;span style=&quot;font-family: &amp;#34;jetbrains mono&amp;#34; , monospace ; color: rgb(136 , 136 , 198)&quot;&gt;tuple&lt;/span&gt;&lt;span style=&quot;color: rgb(235 , 235 , 235) ; font-family: &amp;#34;jetbrains mono&amp;#34; , monospace&quot;&gt;]&lt;/span&gt;&lt;span style=&quot;font-family: &amp;#34;jetbrains mono&amp;#34; , monospace ; color: rgb(237 , 134 , 74) ; font-weight: bold&quot;&gt;, &lt;/span&gt;&lt;span style=&quot;font-family: &amp;#34;jetbrains mono&amp;#34; , monospace ; color: rgb(255 , 255 , 255)&quot;&gt;kwds&lt;/span&gt;&lt;span style=&quot;color: rgb(235 , 235 , 235) ; font-family: &amp;#34;jetbrains mono&amp;#34; , monospace&quot;&gt;: &lt;/span&gt;&lt;span style=&quot;font-family: &amp;#34;jetbrains mono&amp;#34; , monospace ; color: rgb(136 , 136 , 198)&quot;&gt;list&lt;/span&gt;&lt;span style=&quot;color: rgb(235 , 235 , 235) ; font-family: &amp;#34;jetbrains mono&amp;#34; , monospace&quot;&gt;[&lt;/span&gt;&lt;span style=&quot;font-family: &amp;#34;jetbrains mono&amp;#34; , monospace ; color: rgb(136 , 136 , 198)&quot;&gt;list&lt;/span&gt;&lt;span style=&quot;color: rgb(235 , 235 , 235) ; font-family: &amp;#34;jetbrains mono&amp;#34; , monospace&quot;&gt;]&lt;/span&gt;&lt;span style=&quot;font-family: &amp;#34;jetbrains mono&amp;#34; , monospace ; color: rgb(237 , 134 , 74) ; font-weight: bold&quot;&gt;, &lt;br&gt;&lt;/span&gt;&lt;span style=&quot;font-family: &amp;#34;jetbrains mono&amp;#34; , monospace ; color: rgb(255 , 255 , 255)&quot;&gt;args&lt;/span&gt;&lt;span style=&quot;color: rgb(235 , 235 , 235) ; font-family: &amp;#34;jetbrains mono&amp;#34; , monospace&quot;&gt;: &lt;/span&gt;&lt;span style=&quot;font-family: &amp;#34;jetbrains mono&amp;#34; , monospace ; color: rgb(136 , 136 , 198)&quot;&gt;list&lt;/span&gt;&lt;span style=&quot;color: rgb(235 , 235 , 235) ; font-family: &amp;#34;jetbrains mono&amp;#34; , monospace&quot;&gt;[&lt;/span&gt;&lt;span style=&quot;font-family: &amp;#34;jetbrains mono&amp;#34; , monospace ; color: rgb(136 , 136 , 198)&quot;&gt;dict&lt;/span&gt;&lt;span style=&quot;color: rgb(235 , 235 , 235) ; font-family: &amp;#34;jetbrains mono&amp;#34; , monospace&quot;&gt;]&lt;/span&gt;&lt;span style=&quot;font-family: &amp;#34;jetbrains mono&amp;#34; , monospace ; color: rgb(237 , 134 , 74) ; font-weight: bold&quot;&gt;, &lt;br&gt;&lt;/span&gt;&lt;span style=&quot;font-family: &amp;#34;jetbrains mono&amp;#34; , monospace ; color: rgb(255 , 255 , 255)&quot;&gt;compiler&lt;/span&gt;&lt;span style=&quot;color: rgb(235 , 235 , 235) ; font-family: &amp;#34;jetbrains mono&amp;#34; , monospace&quot;&gt;: &lt;/span&gt;&lt;span style=&quot;font-family: &amp;#34;jetbrains mono&amp;#34; , monospace ; color: rgb(136 , 136 , 198)&quot;&gt;dict&lt;/span&gt;&lt;span style=&quot;font-family: &amp;#34;jetbrains mono&amp;#34; , monospace ; color: rgb(237 , 134 , 74) ; font-weight: bold&quot;&gt;,&lt;/span&gt;&lt;span style=&quot;font-family: &amp;#34;jetbrains mono&amp;#34; , monospace ; font-weight: bold ; background-color: rgb(19 , 19 , 20)&quot;&gt;&lt;font color=&quot;#ebebeb&quot;&gt;&lt;br&gt;&lt;/font&gt;&lt;/span&gt;&lt;span style=&quot;font-family: &amp;#34;jetbrains mono&amp;#34; , monospace ; color: rgb(255 , 255 , 255)&quot;&gt;devices&lt;/span&gt;&lt;span style=&quot;color: rgb(235 , 235 , 235) ; font-family: &amp;#34;jetbrains mono&amp;#34; , monospace&quot;&gt;: &lt;/span&gt;&lt;span style=&quot;font-family: &amp;#34;jetbrains mono&amp;#34; , monospace ; color: rgb(136 , 136 , 198)&quot;&gt;dict,&lt;br&gt;&lt;/span&gt;&lt;span style=&quot;font-family: &amp;#34;jetbrains mono&amp;#34; , monospace ; color: rgb(255 , 255 , 255)&quot;&gt;io_shape&lt;/span&gt;&lt;span style=&quot;color: rgb(235 , 235 , 235) ; font-family: &amp;#34;jetbrains mono&amp;#34; , monospace&quot;&gt;:&amp;nbsp;&lt;/span&gt;&lt;span style=&quot;color: rgb(136 , 136 , 198) ; font-family: &amp;#34;jetbrains mono&amp;#34; , monospace&quot;&gt;tuple&lt;/span&gt;&lt;br&gt;}" style="rounded=0;whiteSpace=wrap;html=1;" parent="1" vertex="1"><mxGeometry x="200" y="-150" width="160" height="150" as="geometry"/></mxCell><mxCell id="ItNgEbb21SRkXacaxXQp-10" value="QUEUE: optional" style="edgeStyle=orthogonalEdgeStyle;rounded=0;orthogonalLoop=1;jettySize=auto;html=1;exitX=0;exitY=0.25;exitDx=0;exitDy=0;entryX=0.99;entryY=0.381;entryDx=0;entryDy=0;entryPerimeter=0;strokeColor=default;startArrow=classic;startFill=1;" parent="1" source="ItNgEbb21SRkXacaxXQp-3" target="ItNgEbb21SRkXacaxXQp-4" edge="1"><mxGeometry relative="1" as="geometry"/></mxCell><mxCell id="ItNgEbb21SRkXacaxXQp-12" style="edgeStyle=orthogonalEdgeStyle;rounded=0;orthogonalLoop=1;jettySize=auto;html=1;exitX=1;exitY=0.5;exitDx=0;exitDy=0;startArrow=none;startFill=0;strokeColor=default;" parent="1" source="ItNgEbb21SRkXacaxXQp-3" edge="1"><mxGeometry relative="1" as="geometry"><mxPoint x="650" y="-385" as="targetPoint"/></mxGeometry></mxCell><mxCell id="ItNgEbb21SRkXacaxXQp-3" value="HtGenerator" style="rounded=0;whiteSpace=wrap;html=1;" parent="1" vertex="1"><mxGeometry x="445" y="-417.5" width="100" height="65" as="geometry"/></mxCell><mxCell id="ItNgEbb21SRkXacaxXQp-6" value="GENERATOR" style="edgeStyle=orthogonalEdgeStyle;rounded=0;orthogonalLoop=1;jettySize=auto;html=1;exitX=1;exitY=0.5;exitDx=0;exitDy=0;entryX=0;entryY=0.5;entryDx=0;entryDy=0;" parent="1" source="ItNgEbb21SRkXacaxXQp-4" target="ItNgEbb21SRkXacaxXQp-3" edge="1"><mxGeometry relative="1" as="geometry"/></mxCell><mxCell id="ItNgEbb21SRkXacaxXQp-4" value="DBGUI" style="rounded=0;whiteSpace=wrap;html=1;" parent="1" vertex="1"><mxGeometry y="-450" width="100" height="130" as="geometry"/></mxCell><mxCell id="ItNgEbb21SRkXacaxXQp-5" value="&lt;b&gt;GENERATOR&lt;/b&gt;:&lt;br&gt;path&lt;br&gt;distribution&lt;br&gt;tput&lt;br&gt;awgn_m&lt;br&gt;awgn_v&lt;br&gt;off_m&lt;br&gt;off_v&lt;br&gt;clust_m&lt;br&gt;clust_v&lt;br&gt;number&lt;br&gt;name" style="rounded=0;whiteSpace=wrap;html=1;" parent="1" vertex="1"><mxGeometry x="225" y="-370" width="100" height="195" as="geometry"/></mxCell><mxCell id="ItNgEbb21SRkXacaxXQp-11" value="STATE MSGS + ENDC" style="rounded=1;whiteSpace=wrap;html=1;" parent="1" vertex="1"><mxGeometry x="205" y="-430" width="140" height="20" as="geometry"/></mxCell><mxCell id="ItNgEbb21SRkXacaxXQp-13" value="&lt;b&gt;DATABASE&lt;/b&gt;:&lt;br&gt;name&lt;br&gt;distribution&lt;br&gt;type&lt;br&gt;size&lt;br&gt;path&lt;br&gt;dataset:&lt;br&gt;&lt;span style=&quot;white-space: pre;&quot;&gt;&#9;&lt;/span&gt;xtrain&lt;br&gt;&lt;span style=&quot;white-space: pre;&quot;&gt;&#9;&lt;/span&gt;ytrain&lt;br&gt;&lt;span style=&quot;white-space: pre;&quot;&gt;&#9;&lt;/span&gt;xtest&lt;br&gt;&lt;span style=&quot;white-space: pre;&quot;&gt;&#9;&lt;/span&gt;ytest&lt;br&gt;&lt;span style=&quot;white-space: pre;&quot;&gt;&#9;&lt;/span&gt;xval&lt;br&gt;&lt;span style=&quot;white-space: pre;&quot;&gt;&#9;&lt;/span&gt;yval" style="rounded=0;whiteSpace=wrap;html=1;" parent="1" vertex="1"><mxGeometry x="650" y="-440" width="100" height="195" as="geometry"/></mxCell><mxCell id="3" value="GENERATE&lt;br&gt;DATABASE" style="edgeStyle=orthogonalEdgeStyle;rounded=0;orthogonalLoop=1;jettySize=auto;html=1;exitX=0.5;exitY=0;exitDx=0;exitDy=0;entryX=0.5;entryY=1;entryDx=0;entryDy=0;" parent="1" source="2" target="ItNgEbb21SRkXacaxXQp-4" edge="1"><mxGeometry relative="1" as="geometry"/></mxCell><mxCell id="4" style="edgeStyle=orthogonalEdgeStyle;rounded=0;orthogonalLoop=1;jettySize=auto;html=1;exitX=1;exitY=0.5;exitDx=0;exitDy=0;" parent="1" source="2" target="ItNgEbb21SRkXacaxXQp-1" edge="1"><mxGeometry relative="1" as="geometry"/></mxCell><mxCell id="2" value="MAIN&lt;br&gt;GUI" style="rounded=0;whiteSpace=wrap;html=1;" parent="1" vertex="1"><mxGeometry y="-140" width="100" height="130" as="geometry"/></mxCell><mxCell id="9" style="edgeStyle=orthogonalEdgeStyle;rounded=0;orthogonalLoop=1;jettySize=auto;html=1;exitX=1;exitY=0.5;exitDx=0;exitDy=0;" edge="1" parent="1" source="6" target="8"><mxGeometry relative="1" as="geometry"/></mxCell><mxCell id="6" value="Model" style="rounded=0;whiteSpace=wrap;html=1;" parent="1" vertex="1"><mxGeometry x="445" y="-107.5" width="100" height="65" as="geometry"/></mxCell><mxCell id="8" value="&lt;b&gt;MODEL&lt;/b&gt;:&lt;br&gt;&lt;pre style=&quot;color: rgb(235 , 235 , 235) ; font-family: &amp;#34;jetbrains mono&amp;#34; , monospace&quot;&gt;model: &lt;span style=&quot;color: rgb(255 , 255 , 255)&quot;&gt;keras.Model&lt;/span&gt;&lt;span style=&quot;color: rgb(255 , 255 , 255)&quot;&gt;&lt;br&gt;&lt;/span&gt;compiler: &lt;span style=&quot;color: rgb(255 , 255 , 255)&quot;&gt;Compiler&lt;/span&gt;&lt;span style=&quot;color: rgb(255 , 255 , 255)&quot;&gt;&lt;br&gt;&lt;/span&gt;devices: &lt;span style=&quot;color: rgb(136 , 136 , 198)&quot;&gt;dict&lt;/span&gt;&lt;span style=&quot;color: rgb(136 , 136 , 198)&quot;&gt;&lt;br&gt;&lt;/span&gt;summary: &lt;span style=&quot;color: rgb(136 , 136 , 198)&quot;&gt;str&lt;/span&gt;&lt;span style=&quot;color: rgb(136 , 136 , 198)&quot;&gt;&lt;br&gt;&lt;/span&gt;history: &lt;span style=&quot;color: rgb(136 , 136 , 198)&quot;&gt;list&lt;/span&gt;&lt;span style=&quot;color: rgb(136 , 136 , 198)&quot;&gt;&lt;br&gt;&lt;/span&gt;is_trained: &lt;span style=&quot;color: rgb(136 , 136 , 198)&quot;&gt;bool&lt;/span&gt;&lt;/pre&gt;" style="rounded=0;whiteSpace=wrap;html=1;align=center;" parent="1" vertex="1"><mxGeometry x="630" y="-141.25" width="130" height="132.5" as="geometry"/></mxCell><mxCell id="10" style="edgeStyle=orthogonalEdgeStyle;rounded=0;orthogonalLoop=1;jettySize=auto;html=1;exitX=1;exitY=0.5;exitDx=0;exitDy=0;startArrow=none;startFill=0;strokeColor=default;" edge="1" parent="1" source="11"><mxGeometry relative="1" as="geometry"><mxPoint x="650" y="-605" as="targetPoint"/></mxGeometry></mxCell><mxCell id="11" value="WkGenerator" style="rounded=0;whiteSpace=wrap;html=1;" vertex="1" parent="1"><mxGeometry x="445" y="-637.5" width="100" height="65" as="geometry"/></mxCell><mxCell id="12" value="&lt;b&gt;DATABASE&lt;/b&gt;:&lt;br&gt;name&lt;br&gt;distribution&lt;br&gt;type&lt;br&gt;size&lt;br&gt;path&lt;br&gt;dataset:&lt;br&gt;&lt;span style=&quot;white-space: pre;&quot;&gt;&#9;&lt;/span&gt;xtrain&lt;br&gt;&lt;span style=&quot;white-space: pre;&quot;&gt;&#9;&lt;/span&gt;ytrain&lt;br&gt;&lt;span style=&quot;white-space: pre;&quot;&gt;&#9;&lt;/span&gt;xtest&lt;br&gt;&lt;span style=&quot;white-space: pre;&quot;&gt;&#9;&lt;/span&gt;ytest&lt;br&gt;&lt;span style=&quot;white-space: pre;&quot;&gt;&#9;&lt;/span&gt;xval&lt;br&gt;&lt;span style=&quot;white-space: pre;&quot;&gt;&#9;&lt;/span&gt;yval" style="rounded=0;whiteSpace=wrap;html=1;" vertex="1" parent="1"><mxGeometry x="650" y="-660" width="100" height="195" as="geometry"/></mxCell><mxCell id="13" value="GENERATOR" style="edgeStyle=orthogonalEdgeStyle;rounded=0;orthogonalLoop=1;jettySize=auto;html=1;exitX=0.75;exitY=0;exitDx=0;exitDy=0;entryX=0;entryY=0.75;entryDx=0;entryDy=0;" edge="1" parent="1" source="ItNgEbb21SRkXacaxXQp-4" target="11"><mxGeometry relative="1" as="geometry"><mxPoint x="110" y="-375" as="sourcePoint"/><mxPoint x="455" y="-375" as="targetPoint"/></mxGeometry></mxCell><mxCell id="14" value="QUEUE: optional" style="edgeStyle=orthogonalEdgeStyle;rounded=0;orthogonalLoop=1;jettySize=auto;html=1;exitX=0;exitY=0.5;exitDx=0;exitDy=0;entryX=0.5;entryY=0;entryDx=0;entryDy=0;strokeColor=default;startArrow=classic;startFill=1;" edge="1" parent="1" source="11" target="ItNgEbb21SRkXacaxXQp-4"><mxGeometry relative="1" as="geometry"><mxPoint x="455" y="-391.25" as="sourcePoint"/><mxPoint x="109" y="-390.47" as="targetPoint"/></mxGeometry></mxCell><mxCell id="16" value="&lt;b&gt;GENERATOR&lt;/b&gt;:&lt;br&gt;" style="rounded=0;whiteSpace=wrap;html=1;" vertex="1" parent="1"><mxGeometry x="180" y="-572.5" width="110" height="62.5" as="geometry"/></mxCell><mxCell id="17" value="STATE MSGS + ENDC" style="rounded=1;whiteSpace=wrap;html=1;" vertex="1" parent="1"><mxGeometry x="100" y="-637.5" width="140" height="20" as="geometry"/></mxCell></root></mxGraphModel></diagram></mxfile>